<?xml version="1.0" encoding="utf-8"?>
<!-- Generator: Adobe Illustrator 17.0.0, SVG Export Plug-In . SVG Version: 6.00 Build 0)  -->
<!DOCTYPE svg PUBLIC "-//W3C//DTD SVG 1.1//EN" "http://www.w3.org/Graphics/SVG/1.1/DTD/svg11.dtd">
<svg version="1.1" id="Capa_1" xmlns="http://www.w3.org/2000/svg" xmlns:xlink="http://www.w3.org/1999/xlink" x="0px" y="0px"
	 width="315.295px" height="167px" viewBox="0 0 315.295 167" enable-background="new 0 0 315.295 167" xml:space="preserve">
<g>
	<linearGradient id="SVGID_1_" gradientUnits="userSpaceOnUse" x1="-110.493" y1="173.0848" x2="-110.493" y2="-14.0537">
		<stop  offset="0" style="stop-color:#006DF0"/>
		<stop  offset="1" style="stop-color:#00E7F0"/>
	</linearGradient>
	<path fill="url(#SVGID_1_)" d="M-26.993,12c0-6.627-5.373-12-12-12h-143c-6.627,0-12,5.373-12,12v143c0,6.627,5.373,12,12,12h143
		c6.627,0,12-5.373,12-12V12z"/>
	<g>
		<path fill="#FFFFFF" d="M-125.174,61.536c0,5.308-1.084,10.25-3.249,14.826c-2.166,4.576-5.019,8.786-8.557,12.629
			c-2.99,3.235-5.995,6.467-9.014,9.701c-3.02,3.234-6.36,6.101-10.021,8.603c-1.097,0.732-2.379,1.402-3.843,2.013
			c-1.465,0.61-3.005,1.145-4.622,1.602c-1.617,0.457-3.218,0.808-4.804,1.052c-1.588,0.243-3.02,0.366-4.302,0.366
			c-0.672,0-1.372-0.137-2.104-0.412c-0.733-0.274-1.419-0.641-2.059-1.098c-0.64-0.457-1.16-1.006-1.556-1.647
			c-0.396-0.641-0.594-1.327-0.594-2.06c0-1.158,0.426-2.333,1.281-3.523c0.853-1.19,1.936-2.44,3.249-3.752
			c1.311-1.312,2.714-2.639,4.21-3.982c1.495-1.341,2.897-2.714,4.21-4.118c1.312-1.402,2.394-2.821,3.249-4.256
			c0.854-1.432,1.282-2.882,1.282-4.347c0-1.158-0.29-2.439-0.87-3.843c-0.581-1.403-1.359-2.7-2.334-3.889
			c-0.977-1.19-2.059-2.197-3.249-3.021c-1.19-0.823-2.425-1.235-3.707-1.235c-0.793,0-1.495-0.229-2.105-0.687
			s-0.915-1.113-0.915-1.968c0-1.769,0.641-3.614,1.922-5.537c1.281-1.922,2.943-3.812,4.988-5.673
			c2.044-1.861,4.361-3.645,6.955-5.354c2.593-1.707,5.185-3.203,7.78-4.485c2.592-1.281,5.063-2.302,7.412-3.066
			c2.349-0.762,4.315-1.144,5.903-1.144c2.623,0,4.911,0.503,6.864,1.51c1.951,1.007,3.569,2.349,4.85,4.027
			c1.281,1.679,2.227,3.631,2.837,5.857C-125.48,56.855-125.174,59.156-125.174,61.536z M-174.044,108.758
			c0.304-0.062,0.777-0.123,1.419-0.183c0.641-0.06,1.281-0.167,1.922-0.32c0.641-0.152,1.219-0.335,1.739-0.549
			c0.518-0.213,0.87-0.472,1.052-0.778c-0.366-0.366-0.687-0.762-0.961-1.19c-0.275-0.426-0.412-0.915-0.412-1.464
			c0-0.61,0.137-1.204,0.412-1.785c0.274-0.579,0.412-1.113,0.412-1.601v-0.824h-0.274h-0.091c-1.16,1.16-2.275,2.35-3.341,3.57
			c-1.068,1.22-1.816,2.653-2.242,4.301L-174.044,108.758z M-166.54,64.373c0.367,0.855,0.778,1.876,1.236,3.066
			c0.458,1.19,0.961,2.379,1.51,3.569c0.549,1.19,1.158,2.303,1.83,3.34c0.671,1.039,1.373,1.83,2.105,2.379
			c0.121-0.06,0.441-0.67,0.961-1.83c0.517-1.158,1.128-2.623,1.83-4.392c0.701-1.769,1.433-3.691,2.197-5.766
			c0.762-2.074,1.495-4.057,2.197-5.949c0.7-1.891,1.296-3.554,1.784-4.988c0.488-1.433,0.824-2.394,1.007-2.883
			c-1.281,0.428-2.777,1.13-4.485,2.105c-1.708,0.976-3.385,2.075-5.033,3.294c-1.648,1.221-3.128,2.533-4.439,3.935
			C-165.152,61.659-166.053,63.032-166.54,64.373z M-130.391,58.974c0-1.281-0.091-2.638-0.274-4.073
			c-0.183-1.432-0.549-2.745-1.098-3.935c-0.549-1.19-1.313-2.181-2.288-2.975c-0.976-0.793-2.288-1.19-3.935-1.19
			c-0.183,0-0.535,0.032-1.052,0.091c-0.519,0.062-1.038,0.153-1.556,0.275c-0.518,0.123-0.992,0.26-1.418,0.412
			c-0.428,0.153-0.641,0.352-0.641,0.594c0,2.38-0.626,5.233-1.876,8.558c-1.251,3.326-2.654,6.757-4.21,10.296
			c-1.555,3.539-3.051,7.001-4.484,10.387c-1.435,3.386-2.334,6.36-2.7,8.923c0.732-0.121,1.448-0.289,2.15-0.503
			c0.7-0.214,1.449-0.321,2.242-0.321c0.488,0,1.021,0.078,1.601,0.229c0.58,0.153,0.93,0.504,1.053,1.053l-1.098,1.19
			c-2.197,0.976-3.876,1.816-5.034,2.517c-1.16,0.702-2.029,1.358-2.608,1.967c-0.58,0.611-0.961,1.235-1.144,1.876
			c-0.184,0.641-0.337,1.404-0.458,2.288c-0.123,0.885-0.32,1.938-0.595,3.157c-0.274,1.221-0.809,2.715-1.601,4.485l1.007-0.458
			c1.707-1.037,3.645-2.563,5.811-4.576c2.165-2.013,4.332-4.194,6.499-6.543c2.165-2.348,4.21-4.682,6.131-7.001
			c1.922-2.318,3.492-4.302,4.714-5.949c2.134-2.867,3.811-6.146,5.033-9.839C-131.001,66.219-130.391,62.574-130.391,58.974z"/>
		<path fill="#FFFFFF" d="M-43.085,70.688c0,2.685-0.536,5.445-1.602,8.283c-1.067,2.837-2.441,5.644-4.118,8.419
			c-1.678,2.777-3.508,5.507-5.491,8.191c-1.983,2.685-3.889,5.232-5.72,7.641c-1.831,2.411-3.448,4.638-4.851,6.681
			c-1.404,2.043-2.35,3.828-2.837,5.353c0.916-0.61,1.753-1.326,2.517-2.15c0.763-0.823,1.51-1.617,2.243-2.379
			c0.732-0.764,1.51-1.45,2.333-2.059c0.823-0.609,1.785-1.037,2.882-1.281c0.061,0.306,0.138,0.641,0.229,1.007
			c0.092,0.366,0.138,0.7,0.138,1.006c0,0.975-0.443,2.12-1.327,3.432c-0.885,1.311-1.937,2.577-3.157,3.798
			c-1.221,1.22-2.516,2.256-3.889,3.111c-1.372,0.854-2.548,1.281-3.523,1.281c-0.611,0-1.268-0.153-1.968-0.457
			c-0.702-0.307-1.373-0.703-2.014-1.19c-0.641-0.49-1.175-1.039-1.601-1.647c-0.427-0.611-0.641-1.251-0.641-1.923
			c0-0.244,0.641-1.388,1.922-3.432c1.282-2.045,2.867-4.621,4.759-7.733c1.891-3.111,3.95-6.557,6.178-10.341
			c2.226-3.782,4.286-7.535,6.177-11.257c1.89-3.72,3.478-7.214,4.759-10.478c1.281-3.263,1.922-5.903,1.922-7.916
			c0-0.61-0.336-0.975-1.007-1.098c-1.587,0.855-3.294,2.059-5.124,3.614c-1.831,1.556-3.707,3.356-5.629,5.4
			c-1.922,2.045-3.843,4.195-5.765,6.451c-1.923,2.258-3.784,4.5-5.583,6.726c-1.8,2.228-3.478,4.333-5.034,6.315
			c-1.555,1.983-2.944,3.676-4.163,5.079c-0.366,0-0.778-0.197-1.236-0.594c-0.458-0.396-0.901-0.854-1.327-1.372
			c-0.427-0.518-0.777-1.037-1.052-1.556c-0.274-0.517-0.412-0.96-0.412-1.327s0.32-1.158,0.961-2.379
			c0.641-1.22,1.449-2.7,2.425-4.438c0.975-1.739,2.013-3.615,3.111-5.628c1.098-2.014,2.135-3.965,3.111-5.857
			c0.975-1.891,1.785-3.615,2.426-5.171c0.641-1.555,0.961-2.759,0.961-3.614v-0.824c-3.173,2.137-6.498,4.851-9.975,8.145
			c-3.478,3.295-6.896,6.788-10.25,10.479c-3.355,3.692-6.543,7.412-9.563,11.164c-3.021,3.752-5.66,7.184-7.917,10.296
			c-0.183,0.306-0.503,0.732-0.961,1.281c-0.457,0.549-0.946,1.13-1.464,1.739c-0.519,0.611-1.022,1.128-1.51,1.556
			c-0.489,0.426-0.915,0.64-1.281,0.64c-0.366,0-0.765-0.183-1.191-0.549c-0.427-0.366-0.839-0.793-1.235-1.281
			c-0.398-0.488-0.732-0.992-1.007-1.51c-0.274-0.518-0.412-0.93-0.412-1.236c0-0.488,0.564-1.815,1.693-3.981
			c1.128-2.165,2.531-4.865,4.211-8.099c1.677-3.232,3.491-6.801,5.445-10.707c1.952-3.904,3.767-7.825,5.445-11.76
			c1.677-3.935,3.081-7.702,4.21-11.303c1.129-3.599,1.694-6.71,1.694-9.335c0-0.732-0.108-1.54-0.32-2.425
			c-0.214-0.884-0.81-1.327-1.785-1.327c-1.404,0-2.823,0.366-4.256,1.098c-1.434,0.732-2.806,1.647-4.118,2.746
			c-1.313,1.097-2.562,2.287-3.752,3.569c-1.19,1.281-2.258,2.471-3.204,3.569c-0.946,1.098-1.724,2.013-2.333,2.746
			c-0.611,0.732-1.039,1.097-1.281,1.097c-0.733,0-1.526-0.32-2.379-0.961c-0.856-0.64-1.282-1.387-1.282-2.242
			c0-1.524,0.747-3.233,2.243-5.125c1.495-1.89,3.294-3.645,5.399-5.262c2.105-1.616,4.301-2.975,6.589-4.073
			c2.288-1.098,4.194-1.648,5.72-1.648c1.524,0,2.943,0.307,4.255,0.916c1.312,0.611,2.455,1.419,3.433,2.426
			c0.975,1.006,1.739,2.181,2.288,3.523c0.549,1.343,0.823,2.746,0.823,4.21c0,2.807-0.549,5.935-1.647,9.381
			c-1.098,3.448-2.425,6.955-3.981,10.524c-1.556,3.569-3.189,7.017-4.896,10.342c-1.709,3.326-3.143,6.269-4.301,8.831
			l-0.366,0.915c0.426-0.183,1.144-0.793,2.15-1.83c1.007-1.037,2.197-2.318,3.569-3.844c1.373-1.524,2.883-3.233,4.531-5.125
			c1.647-1.89,3.34-3.812,5.079-5.766c1.739-1.951,3.478-3.843,5.217-5.673c1.739-1.83,3.4-3.462,4.988-4.896
			c1.586-1.433,3.034-2.577,4.347-3.433c1.311-0.853,2.394-1.281,3.249-1.281c0.854,0,1.586,0.214,2.197,0.641
			c0.609,0.428,1.112,0.977,1.51,1.647c0.396,0.672,0.686,1.404,0.869,2.197c0.183,0.793,0.274,1.556,0.274,2.288
			c0,1.404-0.214,2.761-0.641,4.072c-0.427,1.313-0.931,2.595-1.51,3.844c-0.581,1.251-1.205,2.487-1.876,3.706
			c-0.671,1.221-1.251,2.471-1.739,3.752c0.488-0.609,1.327-1.57,2.517-2.882c1.19-1.312,2.531-2.776,4.027-4.393
			c1.495-1.616,3.096-3.279,4.805-4.988c1.707-1.707,3.355-3.263,4.942-4.667c1.586-1.402,3.034-2.562,4.347-3.478
			c1.312-0.915,2.334-1.372,3.066-1.372c0.916,0,1.815,0.336,2.7,1.007c0.884,0.671,1.662,1.495,2.334,2.471
			c0.67,0.976,1.22,2.013,1.647,3.111C-43.3,68.949-43.085,69.895-43.085,70.688z"/>
	</g>
</g>
<g>
	<path fill="#2AC0FF" d="M66.822,59.491c0,4.785-0.978,9.24-2.929,13.365c-1.953,4.125-4.525,7.92-7.714,11.385
		c-2.695,2.916-5.404,5.831-8.127,8.745c-2.722,2.916-5.733,5.501-9.033,7.755c-0.99,0.66-2.146,1.265-3.465,1.815
		c-1.32,0.549-2.71,1.031-4.167,1.443c-1.457,0.413-2.901,0.729-4.331,0.949c-1.431,0.219-2.723,0.33-3.877,0.33
		c-0.606,0-1.238-0.124-1.897-0.371c-0.66-0.248-1.279-0.578-1.856-0.99c-0.578-0.413-1.046-0.908-1.402-1.485
		c-0.357-0.577-0.536-1.196-0.536-1.856c0-1.044,0.384-2.104,1.154-3.176c0.77-1.072,1.746-2.199,2.929-3.383
		c1.183-1.182,2.447-2.378,3.795-3.589c1.348-1.209,2.612-2.446,3.795-3.712c1.183-1.265,2.158-2.544,2.93-3.837
		c0.77-1.291,1.154-2.599,1.154-3.918c0-1.045-0.262-2.199-0.783-3.466c-0.523-1.265-1.225-2.434-2.104-3.506
		s-1.855-1.98-2.929-2.723c-1.072-0.742-2.186-1.113-3.341-1.113c-0.716,0-1.349-0.207-1.897-0.619
		c-0.551-0.412-0.825-1.003-0.825-1.773c0-1.595,0.577-3.259,1.732-4.991s2.653-3.437,4.496-5.115
		c1.843-1.677,3.932-3.286,6.271-4.826c2.337-1.539,4.674-2.888,7.013-4.043c2.337-1.154,4.564-2.075,6.683-2.764
		c2.116-0.687,3.89-1.031,5.32-1.031c2.364,0,4.427,0.454,6.188,1.361c1.76,0.907,3.218,2.118,4.373,3.63
		c1.155,1.514,2.007,3.273,2.558,5.28C66.546,55.271,66.822,57.346,66.822,59.491z M22.767,102.062
		c0.274-0.056,0.701-0.111,1.279-0.165c0.577-0.054,1.154-0.15,1.732-0.289c0.577-0.137,1.1-0.302,1.567-0.495
		c0.467-0.191,0.783-0.425,0.948-0.701c-0.329-0.33-0.618-0.687-0.866-1.072c-0.247-0.384-0.371-0.825-0.371-1.32
		c0-0.549,0.124-1.085,0.371-1.608c0.248-0.522,0.372-1.003,0.372-1.443v-0.743h-0.248H27.47c-1.046,1.046-2.05,2.118-3.012,3.218
		c-0.963,1.101-1.637,2.393-2.021,3.878L22.767,102.062z M29.532,62.048c0.33,0.771,0.701,1.691,1.113,2.764
		c0.413,1.072,0.866,2.146,1.361,3.218s1.044,2.076,1.65,3.011c0.604,0.937,1.237,1.65,1.897,2.146
		c0.109-0.054,0.398-0.604,0.866-1.65c0.467-1.044,1.017-2.364,1.649-3.96c0.632-1.595,1.292-3.327,1.98-5.197
		c0.687-1.869,1.347-3.657,1.979-5.362c0.632-1.704,1.168-3.203,1.609-4.496c0.439-1.292,0.742-2.158,0.907-2.599
		c-1.155,0.385-2.503,1.018-4.043,1.897s-3.052,1.87-4.537,2.97c-1.485,1.101-2.819,2.283-4.001,3.548
		C30.782,59.602,29.972,60.839,29.532,62.048z M62.119,57.181c0-1.155-0.082-2.379-0.247-3.672c-0.165-1.291-0.495-2.475-0.99-3.547
		s-1.184-1.966-2.062-2.682c-0.881-0.714-2.062-1.072-3.548-1.072c-0.165,0-0.481,0.028-0.948,0.082
		c-0.468,0.056-0.936,0.139-1.402,0.248c-0.468,0.11-0.895,0.234-1.279,0.371c-0.385,0.138-0.577,0.317-0.577,0.536
		c0,2.146-0.564,4.717-1.691,7.714c-1.128,2.998-2.393,6.092-3.795,9.281c-1.402,3.19-2.751,6.312-4.043,9.364
		c-1.292,3.052-2.104,5.734-2.434,8.043c0.66-0.109,1.306-0.26,1.939-0.453c0.631-0.192,1.306-0.289,2.021-0.289
		c0.439,0,0.921,0.069,1.444,0.206c0.521,0.138,0.838,0.454,0.948,0.949l-0.989,1.072c-1.98,0.881-3.494,1.637-4.538,2.269
		c-1.045,0.633-1.829,1.225-2.352,1.774s-0.866,1.113-1.031,1.69c-0.165,0.578-0.303,1.267-0.412,2.062
		c-0.11,0.798-0.289,1.747-0.536,2.847c-0.248,1.101-0.729,2.448-1.443,4.042l0.907-0.412c1.539-0.935,3.285-2.31,5.238-4.125
		c1.952-1.815,3.905-3.781,5.857-5.898s3.795-4.221,5.528-6.312c1.732-2.09,3.147-3.878,4.248-5.363
		c1.925-2.585,3.437-5.541,4.538-8.869C61.569,63.712,62.119,60.427,62.119,57.181z"/>
	<path fill="#2AC0FF" d="M89.839,76.98v5.281H69.461V76.98H89.839z"/>
	<path fill="#2AC0FF" d="M163.593,67.741c0,2.421-0.482,4.909-1.444,7.467c-0.963,2.558-2.2,5.088-3.712,7.59
		c-1.514,2.503-3.164,4.964-4.95,7.384c-1.788,2.421-3.506,4.717-5.156,6.889c-1.65,2.173-3.108,4.181-4.373,6.022
		c-1.266,1.842-2.117,3.451-2.557,4.826c0.824-0.551,1.58-1.196,2.269-1.938c0.687-0.743,1.361-1.458,2.021-2.146
		c0.659-0.688,1.36-1.307,2.104-1.856c0.742-0.549,1.608-0.935,2.599-1.154c0.054,0.275,0.124,0.577,0.206,0.907
		c0.083,0.33,0.124,0.632,0.124,0.907c0,0.88-0.399,1.911-1.196,3.094c-0.798,1.183-1.747,2.323-2.847,3.424
		c-1.101,1.1-2.269,2.034-3.506,2.806c-1.237,0.77-2.297,1.154-3.177,1.154c-0.55,0-1.142-0.138-1.773-0.412
		c-0.633-0.276-1.237-0.633-1.814-1.072c-0.578-0.441-1.06-0.937-1.444-1.485c-0.386-0.551-0.577-1.128-0.577-1.732
		c0-0.221,0.577-1.252,1.732-3.094c1.155-1.844,2.584-4.166,4.29-6.972c1.704-2.805,3.561-5.911,5.568-9.322
		c2.007-3.409,3.863-6.792,5.569-10.148c1.704-3.354,3.135-6.503,4.29-9.446c1.154-2.941,1.732-5.321,1.732-7.136
		c0-0.55-0.304-0.88-0.908-0.99c-1.431,0.771-2.97,1.856-4.619,3.259c-1.65,1.402-3.342,3.025-5.074,4.867
		c-1.732,1.844-3.465,3.782-5.197,5.816c-1.732,2.035-3.411,4.057-5.033,6.064c-1.622,2.009-3.135,3.906-4.537,5.692
		c-1.402,1.788-2.654,3.314-3.754,4.579c-0.33,0-0.701-0.178-1.113-0.536c-0.413-0.357-0.812-0.77-1.196-1.237
		c-0.386-0.467-0.701-0.935-0.949-1.402c-0.247-0.467-0.371-0.867-0.371-1.196c0-0.33,0.289-1.045,0.866-2.146
		c0.578-1.1,1.306-2.434,2.187-4.001c0.879-1.567,1.814-3.259,2.805-5.075c0.99-1.814,1.925-3.574,2.806-5.279
		c0.879-1.704,1.608-3.259,2.186-4.662c0.578-1.402,0.866-2.487,0.866-3.259v-0.742c-2.86,1.926-5.857,4.373-8.992,7.343
		c-3.135,2.97-6.216,6.119-9.24,9.446c-3.025,3.329-5.898,6.683-8.621,10.065c-2.723,3.383-5.103,6.477-7.136,9.281
		c-0.165,0.276-0.454,0.66-0.867,1.155c-0.412,0.495-0.853,1.019-1.319,1.567c-0.468,0.551-0.922,1.018-1.361,1.402
		c-0.441,0.385-0.825,0.578-1.155,0.578s-0.688-0.165-1.072-0.495c-0.386-0.33-0.757-0.714-1.114-1.155
		c-0.358-0.439-0.659-0.894-0.907-1.361c-0.247-0.467-0.371-0.838-0.371-1.113c0-0.439,0.508-1.636,1.526-3.589
		c1.017-1.952,2.281-4.386,3.795-7.302c1.512-2.914,3.147-6.132,4.909-9.653c1.759-3.519,3.395-7.054,4.908-10.601
		c1.512-3.548,2.776-6.943,3.795-10.189c1.018-3.244,1.526-6.049,1.526-8.415c0-0.66-0.097-1.388-0.289-2.186
		c-0.193-0.797-0.729-1.196-1.608-1.196c-1.266,0-2.545,0.33-3.836,0.989c-1.293,0.66-2.53,1.485-3.713,2.476
		c-1.184,0.99-2.31,2.062-3.383,3.218c-1.072,1.154-2.035,2.227-2.887,3.217c-0.854,0.99-1.555,1.815-2.104,2.476
		c-0.55,0.659-0.936,0.989-1.154,0.989c-0.66,0-1.376-0.288-2.146-0.866c-0.771-0.577-1.155-1.25-1.155-2.021
		c0-1.375,0.673-2.915,2.021-4.62c1.348-1.704,2.97-3.286,4.868-4.744c1.897-1.456,3.877-2.681,5.939-3.671s3.781-1.485,5.156-1.485
		c1.374,0,2.653,0.276,3.836,0.825c1.183,0.551,2.214,1.278,3.094,2.187c0.88,0.907,1.568,1.967,2.062,3.176
		c0.495,1.211,0.743,2.476,0.743,3.795c0,2.53-0.495,5.35-1.485,8.456c-0.99,3.108-2.187,6.271-3.589,9.488
		c-1.402,3.217-2.874,6.325-4.413,9.322c-1.541,2.999-2.834,5.652-3.878,7.961l-0.33,0.825c0.384-0.165,1.031-0.714,1.938-1.65
		c0.908-0.935,1.98-2.089,3.218-3.465c1.237-1.374,2.599-2.914,4.084-4.621c1.484-1.704,3.011-3.437,4.578-5.197
		c1.568-1.76,3.136-3.465,4.703-5.115c1.567-1.649,3.065-3.12,4.496-4.413c1.43-1.292,2.735-2.323,3.919-3.094
		c1.182-0.77,2.157-1.155,2.929-1.155c0.77,0,1.43,0.193,1.979,0.577c0.55,0.386,1.003,0.881,1.361,1.485
		c0.357,0.605,0.619,1.266,0.784,1.979c0.165,0.716,0.247,1.403,0.247,2.062c0,1.267-0.193,2.489-0.577,3.672
		c-0.386,1.184-0.839,2.338-1.361,3.465c-0.523,1.128-1.087,2.241-1.691,3.341c-0.605,1.102-1.128,2.228-1.567,3.383
		c0.439-0.549,1.196-1.415,2.269-2.599c1.072-1.182,2.282-2.502,3.63-3.96c1.348-1.457,2.791-2.956,4.332-4.496
		c1.539-1.539,3.023-2.941,4.454-4.208c1.43-1.265,2.735-2.31,3.919-3.135c1.183-0.825,2.104-1.237,2.764-1.237
		c0.825,0,1.636,0.303,2.434,0.907c0.797,0.606,1.498,1.349,2.104,2.228c0.604,0.881,1.1,1.815,1.484,2.805
		C163.4,66.173,163.593,67.027,163.593,67.741z"/>
	<path fill="#2AC0FF" d="M166.151,97.771c0.33-0.109,1.003-0.48,2.021-1.113c1.018-0.632,2.214-1.403,3.589-2.311
		c1.374-0.907,2.832-1.883,4.373-2.929c1.539-1.044,2.97-1.993,4.29-2.847c1.319-0.852,2.434-1.567,3.341-2.145
		s1.443-0.866,1.608-0.866c0.275,0,0.522-0.027,0.743-0.083c0.219-0.054,0.384,0.029,0.495,0.248
		c-0.111,0.275-0.729,0.88-1.856,1.814c-1.128,0.937-2.504,2.021-4.125,3.259c-1.623,1.238-3.37,2.545-5.239,3.919
		c-1.87,1.376-3.63,2.641-5.279,3.795c-1.65,1.155-3.067,2.104-4.249,2.847c-1.184,0.742-1.856,1.113-2.021,1.113
		c-0.495,0-0.963-0.138-1.402-0.412c-0.44-0.274-0.825-0.632-1.155-1.072c-0.33-0.439-0.592-0.921-0.783-1.444
		c-0.192-0.521-0.289-1.031-0.289-1.526c0-0.935,0.233-2.186,0.701-3.753c0.467-1.568,1.031-3.189,1.691-4.868
		c0.66-1.677,1.333-3.285,2.021-4.826c0.687-1.539,1.25-2.776,1.691-3.712c0.165-0.33,0.521-1.073,1.072-2.228
		c0.549-1.155,1.141-2.364,1.773-3.63c0.632-1.265,1.237-2.393,1.815-3.383c0.577-0.99,0.976-1.485,1.196-1.485
		c0.935,0,1.814,0.317,2.64,0.949c0.825,0.633,1.374,1.39,1.65,2.269c-0.276,0.495-0.73,1.375-1.361,2.64
		c-0.633,1.267-1.32,2.737-2.062,4.415c-0.743,1.679-1.526,3.452-2.352,5.321c-0.825,1.87-1.582,3.63-2.269,5.28
		c-0.688,1.649-1.237,3.094-1.65,4.331C166.357,96.575,166.151,97.388,166.151,97.771z M179.433,57.676
		c0.219,0,0.577,0.069,1.072,0.206c0.495,0.138,0.99,0.317,1.485,0.536c0.495,0.221,0.92,0.468,1.278,0.742
		c0.357,0.276,0.536,0.578,0.536,0.908c0,0.385-0.206,0.895-0.618,1.526c-0.413,0.633-0.895,1.251-1.444,1.855
		c-0.55,0.606-1.113,1.128-1.691,1.567c-0.577,0.441-1.031,0.66-1.36,0.66c-0.606,0-1.252-0.371-1.939-1.113
		c-0.688-0.743-1.031-1.416-1.031-2.021c0-0.165,0.165-0.508,0.495-1.031c0.33-0.522,0.701-1.072,1.114-1.65
		c0.412-0.577,0.824-1.085,1.237-1.525C178.979,57.896,179.268,57.676,179.433,57.676z"/>
	<path fill="#2AC0FF" d="M191.56,102.392c0.109-1.98,0.632-3.932,1.567-5.857c0.935-1.925,2.007-3.837,3.218-5.734
		c1.209-1.897,2.378-3.78,3.506-5.65c1.127-1.869,1.938-3.74,2.434-5.61l-0.495-0.248c-0.55,0.495-1.416,1.403-2.599,2.723
		c-1.184,1.32-2.516,2.847-4.001,4.579s-3.025,3.521-4.62,5.362c-1.596,1.844-3.081,3.548-4.455,5.115
		c-1.375,1.567-2.517,2.846-3.424,3.836s-1.416,1.485-1.526,1.485c-0.33,0-0.66-0.152-0.989-0.454
		c-0.33-0.302-0.606-0.673-0.825-1.113c-0.221-0.439-0.399-0.894-0.536-1.361c-0.139-0.467-0.207-0.838-0.207-1.114
		c0-0.439,0.233-1.209,0.702-2.31c0.466-1.1,1.072-2.393,1.814-3.878c0.742-1.484,1.567-3.065,2.475-4.743
		c0.908-1.678,1.774-3.3,2.6-4.868c0.824-1.567,1.567-3.011,2.228-4.332c0.659-1.319,1.126-2.337,1.402-3.053
		c0.109-0.219,0.206-0.494,0.288-0.824c0.083-0.33,0.289-0.495,0.619-0.495c0.549,0,1.196,0.344,1.938,1.031
		c0.743,0.688,1.114,1.334,1.114,1.938c0,0.441-0.234,1.266-0.701,2.475c-0.468,1.211-1.005,2.517-1.609,3.919
		c-0.605,1.402-1.183,2.751-1.732,4.043c-0.55,1.293-0.907,2.269-1.072,2.929c0.439-0.33,1.031-0.866,1.773-1.609
		c0.743-0.742,1.567-1.58,2.476-2.516c0.907-0.935,1.827-1.897,2.764-2.888c0.935-0.99,1.801-1.91,2.599-2.764
		c0.797-0.853,1.485-1.554,2.062-2.104s0.948-0.88,1.113-0.99c0.99-0.495,1.966-0.426,2.929,0.206
		c0.962,0.633,1.389,1.665,1.279,3.094c-0.165,1.65-0.825,3.548-1.98,5.692c-1.154,2.146-2.406,4.29-3.753,6.436
		c-1.349,2.145-2.572,4.166-3.672,6.063c-1.101,1.897-1.649,3.451-1.649,4.661c0.659-0.11,1.662-0.605,3.011-1.485
		c1.347-0.879,2.832-1.924,4.455-3.135c1.622-1.209,3.286-2.516,4.991-3.919c1.704-1.402,3.286-2.693,4.744-3.877
		c1.456-1.183,2.681-2.172,3.671-2.97c0.99-0.797,1.567-1.224,1.732-1.279l1.072,1.072c-0.44,0.441-1.251,1.184-2.434,2.228
		c-1.184,1.046-2.558,2.242-4.125,3.589c-1.567,1.349-3.246,2.737-5.032,4.166c-1.788,1.432-3.521,2.737-5.197,3.919
		c-1.679,1.183-3.19,2.158-4.538,2.929c-1.348,0.77-2.351,1.155-3.011,1.155c-0.495,0-0.908-0.138-1.237-0.412
		c-0.33-0.276-0.578-0.592-0.743-0.949c-0.165-0.358-0.275-0.729-0.33-1.113C191.587,102.996,191.56,102.666,191.56,102.392z"/>
	<path fill="#2AC0FF" d="M226.622,98.102c0-1.155,0.137-2.255,0.412-3.3c0.274-1.044,0.604-2.062,0.99-3.053
		c0.384-0.99,0.742-1.98,1.072-2.97c0.33-0.99,0.55-2.008,0.66-3.053c-0.551,0.44-1.266,1.169-2.145,2.187
		c-0.881,1.018-1.815,2.173-2.806,3.465c-0.99,1.293-2.008,2.627-3.053,4.001c-1.045,1.376-2.035,2.627-2.97,3.754
		c-0.936,1.128-1.761,2.062-2.475,2.805c-0.716,0.743-1.237,1.114-1.567,1.114c-1.211,0-2.104-0.523-2.682-1.567
		c-0.577-1.045-0.866-2.09-0.866-3.136c0-2.528,0.443-4.743,1.332-6.641c0.888-1.897,1.946-3.685,3.176-5.362
		s2.477-3.369,3.742-5.074c1.265-1.704,2.255-3.658,2.97-5.858c0.165-0.495,0.083-0.811-0.247-0.949
		c-0.33-0.137-0.784-0.095-1.361,0.124c-0.577,0.221-1.211,0.577-1.897,1.072c-0.688,0.495-1.279,1.128-1.773,1.897
		c-0.165,0.221-0.358,0.248-0.578,0.083s-0.453-0.398-0.701-0.701c-0.247-0.302-0.453-0.632-0.618-0.99
		c-0.165-0.357-0.248-0.646-0.248-0.866c0-0.66,0.261-1.25,0.784-1.773c0.521-0.522,1.141-0.949,1.855-1.279
		s1.457-0.577,2.228-0.742c0.77-0.165,1.43-0.248,1.98-0.248c0.549,0,1.141,0.083,1.773,0.248c0.632,0.165,1.224,0.412,1.774,0.742
		c0.549,0.33,0.989,0.757,1.319,1.279c0.33,0.523,0.495,1.113,0.495,1.773c0,1.046-0.262,2.174-0.783,3.383
		c-0.523,1.21-1.17,2.448-1.939,3.712c-0.771,1.267-1.596,2.558-2.475,3.878c-0.881,1.32-1.705,2.612-2.475,3.877
		c-0.771,1.267-1.403,2.476-1.898,3.631c-0.494,1.154-0.742,2.227-0.742,3.217c2.545-2.749,4.991-5.609,7.343-8.58
		c2.35-2.97,4.77-5.829,7.259-8.58c0.55-0.604,1.06-1.306,1.527-2.104c0.467-0.797,0.92-1.608,1.361-2.434
		c0.439-0.825,0.894-1.608,1.361-2.352c0.467-0.742,1.003-1.388,1.608-1.938l0.165-0.082c0.77,0,1.513,0.303,2.228,0.907
		c0.714,0.605,1.072,1.32,1.072,2.145c0,0.495-0.234,1.279-0.701,2.352c-0.468,1.072-1.045,2.31-1.732,3.713
		c-0.688,1.402-1.443,2.915-2.269,4.537c-0.825,1.623-1.567,3.231-2.228,4.826c-0.66,1.596-1.21,3.094-1.65,4.496
		s-0.633,2.599-0.577,3.589c0.549-0.219,1.389-0.701,2.517-1.443c1.126-0.743,2.378-1.609,3.754-2.599
		c1.374-0.99,2.805-2.034,4.29-3.136c1.484-1.1,2.846-2.116,4.083-3.052c1.237-0.935,2.296-1.719,3.177-2.352
		c0.879-0.632,1.402-0.976,1.567-1.031l0.907,0.165c-0.165,0.386-0.812,1.113-1.938,2.187c-1.128,1.072-2.476,2.282-4.043,3.63
		s-3.272,2.777-5.114,4.29c-1.844,1.513-3.562,2.887-5.156,4.125c-1.597,1.237-2.957,2.256-4.084,3.052
		c-1.128,0.797-1.773,1.196-1.938,1.196c-0.99,0-1.747-0.494-2.27-1.484C226.882,99.834,226.622,98.927,226.622,98.102z"/>
	<path fill="#2AC0FF" d="M242.296,105.279c0-3.136,0.482-6.421,1.444-9.859c0.961-3.437,2.116-6.889,3.465-10.354
		c1.347-3.465,2.764-6.875,4.249-10.23c1.484-3.354,2.749-6.518,3.795-9.488l0.165-0.577l-0.413-0.33
		c-0.825,0-1.637,0.124-2.434,0.371c-0.798,0.248-1.608,0.371-2.434,0.371c-0.771,0-1.39-0.301-1.856-0.907
		c-0.468-0.604-0.701-1.265-0.701-1.979c0-0.33,0.274-0.632,0.825-0.908c0.549-0.274,1.168-0.508,1.856-0.701
		c0.687-0.191,1.361-0.356,2.021-0.495c0.66-0.137,1.127-0.206,1.403-0.206c1.594,0,2.79-0.439,3.588-1.32
		c0.797-0.879,1.403-1.827,1.815-2.846c0.412-1.018,0.714-1.966,0.907-2.847c0.192-0.879,0.508-1.319,0.949-1.319
		c0.604,0,1.306,0.22,2.104,0.66c0.797,0.44,1.196,1.018,1.196,1.732c0,0.605-0.152,1.169-0.454,1.69
		c-0.303,0.523-0.453,1.005-0.453,1.444c0,0.44,0.137,0.729,0.412,0.866c0.274,0.138,0.577,0.206,0.907,0.206
		c1.815,0,3.63-0.206,5.445-0.619c1.815-0.412,3.63-0.618,5.445-0.618c0.384,0,0.811,0.11,1.278,0.33
		c0.467,0.221,0.894,0.495,1.279,0.825c0.384,0.33,0.714,0.715,0.989,1.154c0.275,0.441,0.413,0.854,0.413,1.238
		c0,0.44-0.427,0.771-1.279,0.989c-0.854,0.221-1.938,0.386-3.259,0.495c-1.319,0.111-2.751,0.206-4.29,0.289
		c-1.54,0.082-2.998,0.179-4.372,0.289c-1.375,0.11-2.571,0.288-3.589,0.536c-1.019,0.247-1.637,0.592-1.856,1.031
		c-0.55,1.101-1.293,2.764-2.228,4.991c-0.936,2.228-1.952,4.702-3.052,7.425c-1.102,2.723-2.215,5.583-3.342,8.581
		c-1.128,2.998-2.145,5.857-3.053,8.58c-0.907,2.723-1.649,5.156-2.228,7.301c-0.577,2.146-0.866,3.74-0.866,4.785
		c0,0.439,0.22,0.66,0.66,0.66c0.55,0,1.402-0.495,2.558-1.485s2.434-2.215,3.836-3.671c1.403-1.457,2.888-3.053,4.455-4.785
		s3.065-3.341,4.496-4.826c1.43-1.485,2.694-2.723,3.796-3.713c1.1-0.989,1.924-1.484,2.475-1.484l1.072,0.66
		c-0.55,0.605-1.431,1.596-2.64,2.97c-1.211,1.375-2.613,2.916-4.208,4.62c-1.596,1.705-3.287,3.465-5.073,5.279
		c-1.788,1.815-3.493,3.466-5.115,4.95c-1.623,1.485-3.094,2.709-4.414,3.672c-1.319,0.961-2.282,1.443-2.887,1.443
		c-0.551,0-1.005-0.179-1.361-0.536c-0.357-0.358-0.646-0.784-0.866-1.279c-0.22-0.494-0.372-1.018-0.454-1.567
		S242.296,105.719,242.296,105.279z"/>
	<path fill="#2AC0FF" d="M270.182,102.639c-1.155-0.055-2.118-0.344-2.888-0.866c-0.771-0.521-1.361-1.182-1.773-1.979
		c-0.412-0.797-0.688-1.663-0.825-2.599c-0.137-0.935-0.15-1.869-0.041-2.806c0.165-1.595,0.673-3.396,1.526-5.403
		c0.852-2.007,1.897-3.891,3.135-5.651c1.237-1.76,2.599-3.244,4.084-4.456c1.485-1.209,2.97-1.814,4.455-1.814
		c1.374,0,2.529,0.577,3.465,1.732c0.935,1.155,1.402,2.393,1.402,3.712c0,1.155-0.454,2.448-1.361,3.878
		c-0.907,1.431-1.979,2.751-3.218,3.96c-1.237,1.21-2.516,2.228-3.836,3.053c-1.32,0.824-2.393,1.237-3.218,1.237
		c-0.275,0-0.536-0.068-0.783-0.206c-0.248-0.137-0.482-0.261-0.701-0.372c-0.33,0.276-0.551,0.675-0.66,1.196
		c-0.111,0.523-0.124,1.046-0.041,1.567c0.082,0.523,0.26,0.978,0.536,1.361c0.274,0.386,0.687,0.578,1.237,0.578
		c0.99,0,2.187-0.289,3.589-0.866c1.402-0.578,2.929-1.333,4.579-2.269c1.649-0.935,3.354-1.98,5.114-3.136
		c1.76-1.154,3.437-2.31,5.033-3.465c1.594-1.155,3.065-2.255,4.413-3.3c1.348-1.044,2.434-1.925,3.259-2.64l0.743-0.165v0.082
		l0.247,0.412v0.083c-0.936,0.99-2.091,2.145-3.465,3.465c-1.376,1.32-2.86,2.695-4.455,4.125c-1.596,1.431-3.259,2.847-4.991,4.249
		s-3.452,2.654-5.156,3.754c-1.705,1.101-3.37,1.979-4.991,2.64C272.973,102.392,271.502,102.693,270.182,102.639z M272.986,88.366
		c1.1-0.604,2.104-1.319,3.012-2.145s1.663-1.815,2.269-2.97v-0.083v-0.33c-0.44,0.221-0.922,0.551-1.443,0.99
		c-0.523,0.44-1.06,0.936-1.609,1.485s-1.045,1.101-1.484,1.649c-0.441,0.551-0.771,1.019-0.99,1.402H272.986z"/>
</g>
<g>
	<path fill="#FFFFFF" d="M408.526,59.491c0,4.785-0.978,9.24-2.929,13.365c-1.953,4.125-4.525,7.92-7.714,11.385
		c-2.695,2.916-5.404,5.831-8.127,8.745c-2.722,2.916-5.733,5.501-9.033,7.755c-0.99,0.66-2.146,1.265-3.465,1.815
		c-1.32,0.549-2.71,1.031-4.167,1.443c-1.457,0.413-2.901,0.729-4.331,0.949c-1.431,0.219-2.723,0.33-3.877,0.33
		c-0.606,0-1.238-0.124-1.897-0.371c-0.66-0.248-1.279-0.578-1.856-0.99c-0.578-0.413-1.046-0.908-1.402-1.485
		c-0.357-0.577-0.536-1.196-0.536-1.856c0-1.044,0.384-2.104,1.154-3.176c0.77-1.072,1.746-2.199,2.929-3.383
		c1.183-1.182,2.447-2.378,3.795-3.589c1.348-1.209,2.612-2.446,3.795-3.712c1.183-1.265,2.158-2.544,2.93-3.837
		c0.77-1.291,1.154-2.599,1.154-3.918c0-1.045-0.262-2.199-0.783-3.466c-0.523-1.265-1.225-2.434-2.104-3.506
		s-1.855-1.98-2.929-2.723c-1.072-0.742-2.186-1.113-3.341-1.113c-0.716,0-1.349-0.207-1.897-0.619
		c-0.551-0.412-0.825-1.003-0.825-1.773c0-1.595,0.577-3.259,1.732-4.991s2.653-3.437,4.496-5.115
		c1.843-1.677,3.932-3.286,6.271-4.826c2.337-1.539,4.674-2.888,7.013-4.043c2.337-1.154,4.564-2.075,6.683-2.764
		c2.116-0.687,3.89-1.031,5.32-1.031c2.364,0,4.427,0.454,6.188,1.361c1.76,0.907,3.218,2.118,4.373,3.63
		c1.155,1.514,2.007,3.273,2.558,5.28C408.249,55.271,408.526,57.346,408.526,59.491z M364.47,102.062
		c0.274-0.056,0.701-0.111,1.279-0.165c0.577-0.054,1.154-0.15,1.732-0.289c0.577-0.137,1.1-0.302,1.567-0.495
		c0.467-0.191,0.783-0.425,0.948-0.701c-0.329-0.33-0.618-0.687-0.866-1.072c-0.247-0.384-0.371-0.825-0.371-1.32
		c0-0.549,0.124-1.085,0.371-1.608c0.248-0.522,0.372-1.003,0.372-1.443v-0.743h-0.248h-0.082c-1.046,1.046-2.05,2.118-3.012,3.218
		c-0.963,1.101-1.637,2.393-2.021,3.878L364.47,102.062z M371.236,62.048c0.33,0.771,0.701,1.691,1.113,2.764
		c0.413,1.072,0.866,2.146,1.361,3.218s1.044,2.076,1.65,3.011c0.604,0.937,1.237,1.65,1.897,2.146
		c0.109-0.054,0.398-0.604,0.866-1.65c0.467-1.044,1.017-2.364,1.649-3.96c0.632-1.595,1.292-3.327,1.98-5.197
		c0.687-1.869,1.347-3.657,1.979-5.362c0.632-1.704,1.168-3.203,1.609-4.496c0.439-1.292,0.742-2.158,0.907-2.599
		c-1.155,0.385-2.503,1.018-4.043,1.897s-3.052,1.87-4.537,2.97c-1.485,1.101-2.819,2.283-4.001,3.548
		C372.486,59.602,371.675,60.839,371.236,62.048z M403.822,57.181c0-1.155-0.082-2.379-0.247-3.672
		c-0.165-1.291-0.495-2.475-0.99-3.547s-1.184-1.966-2.062-2.682c-0.881-0.714-2.062-1.072-3.548-1.072
		c-0.165,0-0.481,0.028-0.948,0.082c-0.468,0.056-0.936,0.139-1.402,0.248c-0.468,0.11-0.895,0.234-1.279,0.371
		c-0.385,0.138-0.577,0.317-0.577,0.536c0,2.146-0.564,4.717-1.691,7.714c-1.128,2.998-2.393,6.092-3.795,9.281
		c-1.402,3.19-2.751,6.312-4.043,9.364c-1.292,3.052-2.104,5.734-2.434,8.043c0.66-0.109,1.306-0.26,1.939-0.453
		c0.631-0.192,1.306-0.289,2.021-0.289c0.439,0,0.921,0.069,1.444,0.206c0.521,0.138,0.838,0.454,0.948,0.949l-0.989,1.072
		c-1.98,0.881-3.494,1.637-4.538,2.269c-1.045,0.633-1.829,1.225-2.352,1.774s-0.866,1.113-1.031,1.69
		c-0.165,0.578-0.303,1.267-0.412,2.062c-0.11,0.798-0.289,1.747-0.536,2.847c-0.248,1.101-0.729,2.448-1.443,4.042l0.907-0.412
		c1.539-0.935,3.285-2.31,5.238-4.125c1.952-1.815,3.905-3.781,5.857-5.898s3.795-4.221,5.528-6.312
		c1.732-2.09,3.147-3.878,4.248-5.363c1.925-2.585,3.437-5.541,4.538-8.869C403.273,63.712,403.822,60.427,403.822,57.181z"/>
	<path fill="#FFFFFF" d="M431.542,76.98v5.281h-20.378V76.98H431.542z"/>
	<path fill="#FFFFFF" d="M505.296,67.741c0,2.421-0.482,4.909-1.444,7.467c-0.963,2.558-2.2,5.088-3.712,7.59
		c-1.514,2.503-3.164,4.964-4.95,7.384c-1.788,2.421-3.506,4.717-5.156,6.889c-1.65,2.173-3.108,4.181-4.373,6.022
		c-1.266,1.842-2.117,3.451-2.557,4.826c0.824-0.551,1.58-1.196,2.269-1.938c0.687-0.743,1.361-1.458,2.021-2.146
		c0.659-0.688,1.36-1.307,2.104-1.856c0.742-0.549,1.608-0.935,2.599-1.154c0.054,0.275,0.124,0.577,0.206,0.907
		c0.083,0.33,0.124,0.632,0.124,0.907c0,0.88-0.399,1.911-1.196,3.094c-0.798,1.183-1.747,2.323-2.847,3.424
		c-1.101,1.1-2.269,2.034-3.506,2.806c-1.237,0.77-2.297,1.154-3.177,1.154c-0.55,0-1.142-0.138-1.773-0.412
		c-0.633-0.276-1.237-0.633-1.814-1.072c-0.578-0.441-1.06-0.937-1.444-1.485c-0.386-0.551-0.577-1.128-0.577-1.732
		c0-0.221,0.577-1.252,1.732-3.094c1.155-1.844,2.584-4.166,4.29-6.972c1.704-2.805,3.561-5.911,5.568-9.322
		c2.007-3.409,3.863-6.792,5.569-10.148c1.704-3.354,3.135-6.503,4.29-9.446c1.154-2.941,1.732-5.321,1.732-7.136
		c0-0.55-0.304-0.88-0.908-0.99c-1.431,0.771-2.97,1.856-4.619,3.259c-1.65,1.402-3.342,3.025-5.074,4.867
		c-1.732,1.844-3.465,3.782-5.197,5.816c-1.732,2.035-3.411,4.057-5.033,6.064c-1.622,2.009-3.135,3.906-4.537,5.692
		c-1.402,1.788-2.654,3.314-3.754,4.579c-0.33,0-0.701-0.178-1.113-0.536c-0.413-0.357-0.812-0.77-1.196-1.237
		c-0.386-0.467-0.701-0.935-0.949-1.402c-0.247-0.467-0.371-0.867-0.371-1.196c0-0.33,0.289-1.045,0.866-2.146
		c0.578-1.1,1.306-2.434,2.187-4.001c0.879-1.567,1.814-3.259,2.805-5.075c0.99-1.814,1.925-3.574,2.806-5.279
		c0.879-1.704,1.608-3.259,2.186-4.662c0.578-1.402,0.866-2.487,0.866-3.259v-0.742c-2.86,1.926-5.857,4.373-8.992,7.343
		s-6.216,6.119-9.24,9.446c-3.025,3.329-5.898,6.683-8.621,10.065c-2.723,3.383-5.103,6.477-7.136,9.281
		c-0.165,0.276-0.454,0.66-0.867,1.155c-0.412,0.495-0.853,1.019-1.319,1.567c-0.468,0.551-0.922,1.018-1.361,1.402
		c-0.441,0.385-0.825,0.578-1.155,0.578s-0.688-0.165-1.072-0.495c-0.386-0.33-0.757-0.714-1.114-1.155
		c-0.358-0.439-0.659-0.894-0.907-1.361c-0.247-0.467-0.371-0.838-0.371-1.113c0-0.439,0.508-1.636,1.526-3.589
		c1.017-1.952,2.281-4.386,3.795-7.302c1.512-2.914,3.147-6.132,4.909-9.653c1.759-3.519,3.395-7.054,4.908-10.601
		c1.512-3.548,2.776-6.943,3.795-10.189c1.018-3.244,1.526-6.049,1.526-8.415c0-0.66-0.097-1.388-0.289-2.186
		c-0.193-0.797-0.729-1.196-1.608-1.196c-1.266,0-2.545,0.33-3.836,0.989c-1.293,0.66-2.53,1.485-3.713,2.476
		c-1.184,0.99-2.31,2.062-3.383,3.218c-1.072,1.154-2.035,2.227-2.887,3.217c-0.854,0.99-1.555,1.815-2.104,2.476
		c-0.55,0.659-0.936,0.989-1.154,0.989c-0.66,0-1.376-0.288-2.146-0.866c-0.771-0.577-1.155-1.25-1.155-2.021
		c0-1.375,0.673-2.915,2.021-4.62c1.348-1.704,2.97-3.286,4.868-4.744c1.897-1.456,3.877-2.681,5.939-3.671s3.781-1.485,5.156-1.485
		c1.374,0,2.653,0.276,3.836,0.825c1.183,0.551,2.214,1.278,3.094,2.187c0.88,0.907,1.568,1.967,2.062,3.176
		c0.495,1.211,0.743,2.476,0.743,3.795c0,2.53-0.495,5.35-1.485,8.456c-0.99,3.108-2.187,6.271-3.589,9.488
		c-1.402,3.217-2.874,6.325-4.413,9.322c-1.541,2.999-2.834,5.652-3.878,7.961l-0.33,0.825c0.384-0.165,1.031-0.714,1.938-1.65
		c0.908-0.935,1.98-2.089,3.218-3.465c1.237-1.374,2.599-2.914,4.084-4.621c1.484-1.704,3.011-3.437,4.578-5.197
		c1.568-1.76,3.136-3.465,4.703-5.115c1.567-1.649,3.065-3.12,4.496-4.413c1.43-1.292,2.735-2.323,3.919-3.094
		c1.182-0.77,2.157-1.155,2.929-1.155c0.77,0,1.43,0.193,1.979,0.577c0.55,0.386,1.003,0.881,1.361,1.485
		c0.357,0.605,0.619,1.266,0.784,1.979c0.165,0.716,0.247,1.403,0.247,2.062c0,1.267-0.193,2.489-0.577,3.672
		c-0.386,1.184-0.839,2.338-1.361,3.465c-0.523,1.128-1.087,2.241-1.691,3.341c-0.605,1.102-1.128,2.228-1.567,3.383
		c0.439-0.549,1.196-1.415,2.269-2.599c1.072-1.182,2.282-2.502,3.63-3.96c1.348-1.457,2.791-2.956,4.332-4.496
		c1.539-1.539,3.023-2.941,4.454-4.208c1.43-1.265,2.735-2.31,3.919-3.135c1.183-0.825,2.104-1.237,2.764-1.237
		c0.825,0,1.636,0.303,2.434,0.907c0.797,0.606,1.498,1.349,2.104,2.228c0.604,0.881,1.1,1.815,1.484,2.805
		C505.103,66.173,505.296,67.027,505.296,67.741z"/>
	<path fill="#FFFFFF" d="M507.854,97.771c0.33-0.109,1.003-0.48,2.021-1.113c1.018-0.632,2.214-1.403,3.589-2.311
		c1.374-0.907,2.832-1.883,4.373-2.929c1.539-1.044,2.97-1.993,4.29-2.847c1.319-0.852,2.434-1.567,3.341-2.145
		s1.443-0.866,1.608-0.866c0.275,0,0.522-0.027,0.743-0.083c0.219-0.054,0.384,0.029,0.495,0.248
		c-0.111,0.275-0.729,0.88-1.856,1.814c-1.128,0.937-2.504,2.021-4.125,3.259c-1.623,1.238-3.37,2.545-5.239,3.919
		c-1.87,1.376-3.63,2.641-5.279,3.795c-1.65,1.155-3.067,2.104-4.249,2.847c-1.184,0.742-1.856,1.113-2.021,1.113
		c-0.495,0-0.963-0.138-1.402-0.412c-0.44-0.274-0.825-0.632-1.155-1.072c-0.33-0.439-0.592-0.921-0.783-1.444
		c-0.192-0.521-0.289-1.031-0.289-1.526c0-0.935,0.233-2.186,0.701-3.753c0.467-1.568,1.031-3.189,1.691-4.868
		c0.66-1.677,1.333-3.285,2.021-4.826c0.687-1.539,1.25-2.776,1.691-3.712c0.165-0.33,0.521-1.073,1.072-2.228
		c0.549-1.155,1.141-2.364,1.773-3.63c0.632-1.265,1.237-2.393,1.815-3.383c0.577-0.99,0.976-1.485,1.196-1.485
		c0.935,0,1.814,0.317,2.64,0.949c0.825,0.633,1.374,1.39,1.65,2.269c-0.276,0.495-0.73,1.375-1.361,2.64
		c-0.633,1.267-1.32,2.737-2.062,4.415c-0.743,1.679-1.526,3.452-2.352,5.321c-0.825,1.87-1.582,3.63-2.269,5.28
		c-0.688,1.649-1.237,3.094-1.65,4.331C508.06,96.575,507.854,97.388,507.854,97.771z M521.136,57.676
		c0.219,0,0.577,0.069,1.072,0.206c0.495,0.138,0.99,0.317,1.485,0.536c0.495,0.221,0.92,0.468,1.278,0.742
		c0.357,0.276,0.536,0.578,0.536,0.908c0,0.385-0.206,0.895-0.618,1.526c-0.413,0.633-0.895,1.251-1.444,1.855
		c-0.55,0.606-1.113,1.128-1.691,1.567c-0.577,0.441-1.031,0.66-1.36,0.66c-0.606,0-1.252-0.371-1.939-1.113
		c-0.688-0.743-1.031-1.416-1.031-2.021c0-0.165,0.165-0.508,0.495-1.031c0.33-0.522,0.701-1.072,1.114-1.65
		c0.412-0.577,0.824-1.085,1.237-1.525C520.682,57.896,520.971,57.676,521.136,57.676z"/>
	<path fill="#FFFFFF" d="M533.263,102.392c0.109-1.98,0.632-3.932,1.567-5.857c0.935-1.925,2.007-3.837,3.218-5.734
		c1.209-1.897,2.378-3.78,3.506-5.65c1.127-1.869,1.938-3.74,2.434-5.61l-0.495-0.248c-0.55,0.495-1.416,1.403-2.599,2.723
		c-1.184,1.32-2.516,2.847-4.001,4.579s-3.025,3.521-4.62,5.362c-1.596,1.844-3.081,3.548-4.455,5.115
		c-1.375,1.567-2.517,2.846-3.424,3.836s-1.416,1.485-1.526,1.485c-0.33,0-0.66-0.152-0.989-0.454
		c-0.33-0.302-0.606-0.673-0.825-1.113c-0.221-0.439-0.399-0.894-0.536-1.361c-0.139-0.467-0.207-0.838-0.207-1.114
		c0-0.439,0.233-1.209,0.702-2.31c0.466-1.1,1.072-2.393,1.814-3.878c0.742-1.484,1.567-3.065,2.475-4.743
		c0.908-1.678,1.774-3.3,2.6-4.868c0.824-1.567,1.567-3.011,2.228-4.332c0.659-1.319,1.126-2.337,1.402-3.053
		c0.109-0.219,0.206-0.494,0.288-0.824c0.083-0.33,0.289-0.495,0.619-0.495c0.549,0,1.196,0.344,1.938,1.031
		c0.743,0.688,1.114,1.334,1.114,1.938c0,0.441-0.234,1.266-0.701,2.475c-0.468,1.211-1.005,2.517-1.609,3.919
		c-0.605,1.402-1.183,2.751-1.732,4.043c-0.55,1.293-0.907,2.269-1.072,2.929c0.439-0.33,1.031-0.866,1.773-1.609
		c0.743-0.742,1.567-1.58,2.476-2.516c0.907-0.935,1.827-1.897,2.764-2.888c0.935-0.99,1.801-1.91,2.599-2.764
		c0.797-0.853,1.485-1.554,2.062-2.104s0.948-0.88,1.113-0.99c0.99-0.495,1.966-0.426,2.929,0.206
		c0.962,0.633,1.389,1.665,1.279,3.094c-0.165,1.65-0.825,3.548-1.98,5.692c-1.154,2.146-2.406,4.29-3.753,6.436
		c-1.349,2.145-2.572,4.166-3.672,6.063c-1.101,1.897-1.649,3.451-1.649,4.661c0.659-0.11,1.662-0.605,3.011-1.485
		c1.347-0.879,2.832-1.924,4.455-3.135c1.622-1.209,3.286-2.516,4.991-3.919c1.704-1.402,3.286-2.693,4.744-3.877
		c1.456-1.183,2.681-2.172,3.671-2.97c0.99-0.797,1.567-1.224,1.732-1.279l1.072,1.072c-0.44,0.441-1.251,1.184-2.434,2.228
		c-1.184,1.046-2.558,2.242-4.125,3.589c-1.567,1.349-3.246,2.737-5.032,4.166c-1.788,1.432-3.521,2.737-5.197,3.919
		c-1.679,1.183-3.19,2.158-4.538,2.929c-1.348,0.77-2.351,1.155-3.011,1.155c-0.495,0-0.908-0.138-1.237-0.412
		c-0.33-0.276-0.578-0.592-0.743-0.949c-0.165-0.358-0.275-0.729-0.33-1.113C533.29,102.996,533.263,102.666,533.263,102.392z"/>
	<path fill="#FFFFFF" d="M568.325,98.102c0-1.155,0.137-2.255,0.412-3.3c0.274-1.044,0.604-2.062,0.99-3.053
		c0.384-0.99,0.742-1.98,1.072-2.97c0.33-0.99,0.55-2.008,0.66-3.053c-0.551,0.44-1.266,1.169-2.145,2.187
		c-0.881,1.018-1.815,2.173-2.806,3.465c-0.99,1.293-2.008,2.627-3.053,4.001c-1.045,1.376-2.035,2.627-2.97,3.754
		c-0.936,1.128-1.761,2.062-2.475,2.805c-0.716,0.743-1.237,1.114-1.567,1.114c-1.211,0-2.104-0.523-2.682-1.567
		c-0.577-1.045-0.866-2.09-0.866-3.136c0-2.528,0.443-4.743,1.332-6.641c0.888-1.897,1.946-3.685,3.176-5.362
		s2.477-3.369,3.742-5.074c1.265-1.704,2.255-3.658,2.97-5.858c0.165-0.495,0.083-0.811-0.247-0.949
		c-0.33-0.137-0.784-0.095-1.361,0.124c-0.577,0.221-1.211,0.577-1.897,1.072c-0.688,0.495-1.279,1.128-1.773,1.897
		c-0.165,0.221-0.358,0.248-0.578,0.083s-0.453-0.398-0.701-0.701c-0.247-0.302-0.453-0.632-0.618-0.99
		c-0.165-0.357-0.248-0.646-0.248-0.866c0-0.66,0.261-1.25,0.784-1.773c0.521-0.522,1.141-0.949,1.855-1.279
		s1.457-0.577,2.228-0.742c0.77-0.165,1.43-0.248,1.98-0.248c0.549,0,1.141,0.083,1.773,0.248c0.632,0.165,1.224,0.412,1.774,0.742
		c0.549,0.33,0.989,0.757,1.319,1.279c0.33,0.523,0.495,1.113,0.495,1.773c0,1.046-0.262,2.174-0.783,3.383
		c-0.523,1.21-1.17,2.448-1.939,3.712c-0.771,1.267-1.596,2.558-2.475,3.878c-0.881,1.32-1.705,2.612-2.475,3.877
		c-0.771,1.267-1.403,2.476-1.898,3.631c-0.494,1.154-0.742,2.227-0.742,3.217c2.545-2.749,4.991-5.609,7.343-8.58
		c2.35-2.97,4.77-5.829,7.259-8.58c0.55-0.604,1.06-1.306,1.527-2.104c0.467-0.797,0.92-1.608,1.361-2.434
		c0.439-0.825,0.894-1.608,1.361-2.352c0.467-0.742,1.003-1.388,1.608-1.938l0.165-0.082c0.77,0,1.513,0.303,2.228,0.907
		c0.714,0.605,1.072,1.32,1.072,2.145c0,0.495-0.234,1.279-0.701,2.352c-0.468,1.072-1.045,2.31-1.732,3.713
		c-0.688,1.402-1.443,2.915-2.269,4.537c-0.825,1.623-1.567,3.231-2.228,4.826c-0.66,1.596-1.21,3.094-1.65,4.496
		s-0.633,2.599-0.577,3.589c0.549-0.219,1.389-0.701,2.517-1.443c1.126-0.743,2.378-1.609,3.754-2.599
		c1.374-0.99,2.805-2.034,4.29-3.136c1.484-1.1,2.846-2.116,4.083-3.052c1.237-0.935,2.296-1.719,3.177-2.352
		c0.879-0.632,1.402-0.976,1.567-1.031l0.907,0.165c-0.165,0.386-0.812,1.113-1.938,2.187c-1.128,1.072-2.476,2.282-4.043,3.63
		s-3.272,2.777-5.114,4.29c-1.844,1.513-3.562,2.887-5.156,4.125c-1.597,1.237-2.957,2.256-4.084,3.052
		c-1.128,0.797-1.773,1.196-1.938,1.196c-0.99,0-1.747-0.494-2.27-1.484C568.585,99.834,568.325,98.927,568.325,98.102z"/>
	<path fill="#FFFFFF" d="M583.999,105.279c0-3.136,0.482-6.421,1.444-9.859c0.961-3.437,2.116-6.889,3.465-10.354
		c1.347-3.465,2.764-6.875,4.249-10.23c1.484-3.354,2.749-6.518,3.795-9.488l0.165-0.577l-0.413-0.33
		c-0.825,0-1.637,0.124-2.434,0.371c-0.798,0.248-1.608,0.371-2.434,0.371c-0.771,0-1.39-0.301-1.856-0.907
		c-0.468-0.604-0.701-1.265-0.701-1.979c0-0.33,0.274-0.632,0.825-0.908c0.549-0.274,1.168-0.508,1.856-0.701
		c0.687-0.191,1.361-0.356,2.021-0.495c0.66-0.137,1.127-0.206,1.403-0.206c1.594,0,2.79-0.439,3.588-1.32
		c0.797-0.879,1.403-1.827,1.815-2.846c0.412-1.018,0.714-1.966,0.907-2.847c0.192-0.879,0.508-1.319,0.949-1.319
		c0.604,0,1.306,0.22,2.104,0.66c0.797,0.44,1.196,1.018,1.196,1.732c0,0.605-0.152,1.169-0.454,1.69
		c-0.303,0.523-0.453,1.005-0.453,1.444c0,0.44,0.137,0.729,0.412,0.866c0.274,0.138,0.577,0.206,0.907,0.206
		c1.815,0,3.63-0.206,5.445-0.619c1.815-0.412,3.63-0.618,5.445-0.618c0.384,0,0.811,0.11,1.278,0.33
		c0.467,0.221,0.894,0.495,1.279,0.825c0.384,0.33,0.714,0.715,0.989,1.154c0.275,0.441,0.413,0.854,0.413,1.238
		c0,0.44-0.427,0.771-1.279,0.989c-0.854,0.221-1.938,0.386-3.259,0.495c-1.319,0.111-2.751,0.206-4.29,0.289
		c-1.54,0.082-2.998,0.179-4.372,0.289c-1.375,0.11-2.571,0.288-3.589,0.536c-1.019,0.247-1.637,0.592-1.856,1.031
		c-0.55,1.101-1.293,2.764-2.228,4.991c-0.936,2.228-1.952,4.702-3.052,7.425c-1.102,2.723-2.215,5.583-3.342,8.581
		c-1.128,2.998-2.145,5.857-3.053,8.58c-0.907,2.723-1.649,5.156-2.228,7.301c-0.577,2.146-0.866,3.74-0.866,4.785
		c0,0.439,0.22,0.66,0.66,0.66c0.55,0,1.402-0.495,2.558-1.485s2.434-2.215,3.836-3.671c1.403-1.457,2.888-3.053,4.455-4.785
		s3.065-3.341,4.496-4.826c1.43-1.485,2.694-2.723,3.796-3.713c1.1-0.989,1.924-1.484,2.475-1.484l1.072,0.66
		c-0.55,0.605-1.431,1.596-2.64,2.97c-1.211,1.375-2.613,2.916-4.208,4.62c-1.596,1.705-3.287,3.465-5.073,5.279
		c-1.788,1.815-3.493,3.466-5.115,4.95c-1.623,1.485-3.094,2.709-4.414,3.672c-1.319,0.961-2.282,1.443-2.887,1.443
		c-0.551,0-1.005-0.179-1.361-0.536c-0.357-0.358-0.646-0.784-0.866-1.279c-0.22-0.494-0.372-1.018-0.454-1.567
		S583.999,105.719,583.999,105.279z"/>
	<path fill="#FFFFFF" d="M611.885,102.639c-1.155-0.055-2.118-0.344-2.888-0.866c-0.771-0.521-1.361-1.182-1.773-1.979
		c-0.412-0.797-0.688-1.663-0.825-2.599c-0.137-0.935-0.15-1.869-0.041-2.806c0.165-1.595,0.673-3.396,1.526-5.403
		c0.852-2.007,1.897-3.891,3.135-5.651c1.237-1.76,2.599-3.244,4.084-4.456c1.485-1.209,2.97-1.814,4.455-1.814
		c1.374,0,2.529,0.577,3.465,1.732c0.935,1.155,1.402,2.393,1.402,3.712c0,1.155-0.454,2.448-1.361,3.878
		c-0.907,1.431-1.979,2.751-3.218,3.96c-1.237,1.21-2.516,2.228-3.836,3.053c-1.32,0.824-2.393,1.237-3.218,1.237
		c-0.275,0-0.536-0.068-0.783-0.206c-0.248-0.137-0.482-0.261-0.701-0.372c-0.33,0.276-0.551,0.675-0.66,1.196
		c-0.111,0.523-0.124,1.046-0.041,1.567c0.082,0.523,0.26,0.978,0.536,1.361c0.274,0.386,0.687,0.578,1.237,0.578
		c0.99,0,2.187-0.289,3.589-0.866c1.402-0.578,2.929-1.333,4.579-2.269c1.649-0.935,3.354-1.98,5.114-3.136
		c1.76-1.154,3.437-2.31,5.033-3.465c1.594-1.155,3.065-2.255,4.413-3.3c1.348-1.044,2.434-1.925,3.259-2.64l0.743-0.165v0.082
		l0.247,0.412v0.083c-0.936,0.99-2.091,2.145-3.465,3.465c-1.376,1.32-2.86,2.695-4.455,4.125c-1.596,1.431-3.259,2.847-4.991,4.249
		s-3.452,2.654-5.156,3.754c-1.705,1.101-3.37,1.979-4.991,2.64C614.676,102.392,613.205,102.693,611.885,102.639z M614.69,88.366
		c1.1-0.604,2.104-1.319,3.012-2.145s1.663-1.815,2.269-2.97v-0.083v-0.33c-0.44,0.221-0.922,0.551-1.443,0.99
		c-0.523,0.44-1.06,0.936-1.609,1.485s-1.045,1.101-1.484,1.649c-0.441,0.551-0.771,1.019-0.99,1.402H614.69z"/>
</g>
</svg>
