<?xml version="1.0" encoding="utf-8"?>
<!-- Generator: Adobe Illustrator 17.0.0, SVG Export Plug-In . SVG Version: 6.00 Build 0)  -->
<!DOCTYPE svg PUBLIC "-//W3C//DTD SVG 1.1//EN" "http://www.w3.org/Graphics/SVG/1.1/DTD/svg11.dtd">
<svg version="1.1" id="Layer_1" xmlns="http://www.w3.org/2000/svg" xmlns:xlink="http://www.w3.org/1999/xlink" x="0px" y="0px"
	 width="85px" height="85px" viewBox="0 0 85 85" enable-background="new 0 0 85 85" xml:space="preserve">
<linearGradient id="SVGID_1_" gradientUnits="userSpaceOnUse" x1="42.5" y1="85" x2="42.5" y2="-1.506123e-09">
	<stop  offset="0" style="stop-color:#006DF0"/>
	<stop  offset="1" style="stop-color:#00E7F0"/>
</linearGradient>
<path fill="url(#SVGID_1_)" d="M76.186,0H8.814C3.946,0,0,3.946,0,8.814v67.373C0,81.054,3.946,85,8.814,85h67.373
	C81.054,85,85,81.054,85,76.186V8.814C85,3.946,81.054,0,76.186,0z"/>
<g>
	<path fill="#F2F2F2" d="M56.164,16.834c1.599,0,3.091-0.112,4.56,0.024c2.66,0.247,4.276,1.935,4.282,4.601
		c0.036,16.064,0.037,32.128,0.002,48.192c-0.007,3.043-1.786,4.845-4.828,4.857c-11.819,0.048-23.639,0.05-35.458-0.004
		c-2.923-0.013-4.712-1.795-4.72-4.7c-0.046-16.064-0.046-32.128-0.011-48.192c0.006-2.892,1.791-4.562,4.725-4.666
		c1.317-0.047,2.638-0.008,4.121-0.008c0.074-0.897-0.066-1.718,0.244-2.299c0.359-0.674,1.039-1.468,1.712-1.618
		c1.19-0.266,2.51,0.082,3.722-0.133c1.553-0.275,3.158-0.644,4.549-1.349c2.087-1.058,4.353-1.682,6.13-0.235
		c2.223,1.81,4.583,1.603,7.037,1.622C55.814,12.953,55.814,12.943,56.164,16.834z M28.749,19.659
		c-0.451-0.028-0.934-0.076-1.418-0.086c-4.511-0.09-4.545-0.055-4.545,4.555c0,14.738-0.005,29.477,0.005,44.215
		c0.002,3.062,0.224,3.306,3.242,3.311c10.991,0.018,21.983,0.009,32.974-0.002c2.99-0.003,3.18-0.202,3.183-3.333
		c0.013-14.489,0.027-28.977,0.015-43.466c-0.005-5.533-0.036-5.534-5.556-5.22c-0.146,0.008-0.285,0.142-0.425,0.222
		c-0.543,4.387-0.203,3.662-4.36,3.7c-6.161,0.057-12.324,0.014-18.486,0.013C29.38,23.569,29.38,23.569,28.749,19.659z
		 M52.975,15.567c-1.033,0-1.845,0.004-2.656-0.001c-2.19-0.013-4.364,0.335-6.24-1.547c-0.568-0.57-2.755-0.498-3.344,0.11
		c-1.591,1.643-3.408,1.428-5.281,1.449c-1.131,0.013-2.262,0.002-3.418,0.002c0,1.873,0,3.418,0,5.03c7.05,0,13.953,0,20.94,0
		C52.975,18.913,52.975,17.432,52.975,15.567z"/>
	<path fill="#FFFFFF" d="M28.749,19.659c0.631,3.91,0.631,3.91,4.629,3.91c6.162,0.001,12.324,0.043,18.486-0.013
		c4.156-0.038,3.817,0.687,4.358-3.703c0.141-0.078,0.28-0.212,0.426-0.22c5.52-0.314,5.552-0.313,5.556,5.22
		c0.012,14.489-0.002,28.977-0.015,43.466c-0.003,3.131-0.193,3.33-3.183,3.333c-10.991,0.011-21.983,0.02-32.974,0.002
		c-3.018-0.005-3.24-0.249-3.242-3.311c-0.01-14.738-0.005-29.477-0.005-44.215c0-4.61,0.034-4.645,4.545-4.555
		C27.815,19.583,28.298,19.631,28.749,19.659z M36.457,32.919c6.903,0,13.68,0,20.623,0c-0.062-0.941-0.114-1.724-0.169-2.567
		c-6.909,0-13.607,0-20.453,0C36.457,31.283,36.457,32.062,36.457,32.919z M36.455,42.278c6.89,0,13.662,0,20.607,0
		c-0.047-0.977-0.086-1.764-0.127-2.61c-6.908,0-13.621,0-20.48,0C36.455,40.575,36.455,41.36,36.455,42.278z M36.276,60.94
		c7.076,0,13.836,0,20.782,0c-0.05-0.94-0.091-1.712-0.133-2.514c-6.944,0-13.637,0-20.495,0
		C36.378,59.271,36.334,59.986,36.276,60.94z M36.258,49.053c0.087,0.993,0.15,1.703,0.215,2.448c6.944,0,13.711,0,20.62,0
		c-0.063-0.93-0.111-1.639-0.166-2.448C50.046,49.053,43.335,49.053,36.258,49.053z M33.489,40.902
		c0.392-2.387-0.906-2.788-2.895-2.845c-2.332-0.066-2.688,1.087-2.707,3.058c-0.019,2.02,0.673,2.81,2.717,2.811
		C32.814,43.929,33.936,43.196,33.489,40.902z M30.712,28.878c-2.3-0.38-2.83,0.786-2.828,2.868
		c0.002,2.019,0.624,2.817,2.726,2.811c2.099-0.006,2.985-0.608,2.972-2.854C33.569,29.56,32.949,28.515,30.712,28.878z
		 M30.647,47.56c-2.373-0.448-2.693,0.873-2.766,2.855c-0.083,2.267,0.893,2.761,2.929,2.804c2.252,0.048,2.778-0.888,2.774-2.955
		C33.58,48.08,32.8,47.181,30.647,47.56z M33.477,59.613c0.456-2.414-0.927-2.711-2.899-2.761c-2.113-0.054-2.691,0.777-2.7,2.791
		c-0.009,2.133,0.655,2.948,2.863,2.931C32.936,62.557,33.855,61.791,33.477,59.613z"/>
	<path fill="#2AC0FF" d="M52.975,15.567c0,1.865,0,3.346,0,5.044c-6.987,0-13.89,0-20.94,0c0-1.612,0-3.157,0-5.03
		c1.156,0,2.287,0.011,3.418-0.002c1.873-0.021,3.691,0.194,5.281-1.449c0.589-0.608,2.776-0.68,3.344-0.11
		c1.876,1.882,4.049,1.533,6.24,1.547C51.13,15.571,51.942,15.567,52.975,15.567z"/>
	<path fill="#2AC0FF" d="M36.457,32.919c0-0.857,0-1.636,0-2.567c6.846,0,13.545,0,20.453,0c0.056,0.842,0.107,1.626,0.169,2.567
		C50.137,32.919,43.36,32.919,36.457,32.919z"/>
	<path fill="#2AC0FF" d="M36.455,42.278c0-0.918,0-1.703,0-2.61c6.859,0,13.572,0,20.48,0c0.041,0.846,0.079,1.633,0.127,2.61
		C50.117,42.278,43.346,42.278,36.455,42.278z"/>
	<path fill="#2AC0FF" d="M36.276,60.94c0.058-0.954,0.102-1.669,0.154-2.514c6.858,0,13.551,0,20.495,0
		c0.042,0.802,0.083,1.575,0.133,2.514C50.112,60.94,43.352,60.94,36.276,60.94z"/>
	<path fill="#2AC0FF" d="M36.258,49.053c7.077,0,13.789,0,20.67,0c0.055,0.809,0.103,1.518,0.166,2.448c-6.909,0-13.676,0-20.62,0
		C36.408,50.756,36.345,50.046,36.258,49.053z"/>
	<path fill="#2AC0FF" d="M33.489,40.902c0.448,2.294-0.674,3.026-2.885,3.025c-2.044-0.001-2.736-0.791-2.717-2.811
		c0.018-1.972,0.375-3.125,2.707-3.058C32.582,38.114,33.881,38.515,33.489,40.902z"/>
	<path fill="#2AC0FF" d="M30.712,28.878c2.237-0.363,2.858,0.681,2.87,2.825c0.013,2.246-0.873,2.847-2.972,2.854
		c-2.102,0.006-2.724-0.792-2.726-2.811C27.882,29.664,28.412,28.498,30.712,28.878z"/>
	<path fill="#2AC0FF" d="M30.647,47.56c2.153-0.379,2.933,0.519,2.937,2.704c0.004,2.067-0.522,3.003-2.774,2.955
		c-2.036-0.043-3.013-0.537-2.929-2.804C27.954,48.434,28.274,47.113,30.647,47.56z"/>
	<path fill="#2AC0FF" d="M33.477,59.613c0.378,2.178-0.541,2.944-2.736,2.961c-2.208,0.017-2.871-0.798-2.863-2.931
		c0.008-2.014,0.586-2.844,2.7-2.791C32.55,56.902,33.932,57.199,33.477,59.613z"/>
</g>
</svg>
