<?xml version="1.0" encoding="utf-8"?>
<!-- Generator: Adobe Illustrator 17.0.0, SVG Export Plug-In . SVG Version: 6.00 Build 0)  -->
<!DOCTYPE svg PUBLIC "-//W3C//DTD SVG 1.1//EN" "http://www.w3.org/Graphics/SVG/1.1/DTD/svg11.dtd">
<svg version="1.1" id="Layer_1" xmlns="http://www.w3.org/2000/svg" xmlns:xlink="http://www.w3.org/1999/xlink" x="0px" y="0px"
	 width="85px" height="85px" viewBox="0 0 85 85" enable-background="new 0 0 85 85" xml:space="preserve">
<linearGradient id="SVGID_1_" gradientUnits="userSpaceOnUse" x1="42.5" y1="85" x2="42.5" y2="-1.509761e-09">
	<stop  offset="0" style="stop-color:#006DF0"/>
	<stop  offset="1" style="stop-color:#00E7F0"/>
</linearGradient>
<path fill="url(#SVGID_1_)" d="M76.186,0H8.814C3.946,0,0,3.946,0,8.814v67.373C0,81.054,3.946,85,8.814,85h67.373
	C81.054,85,85,81.054,85,76.186V8.814C85,3.946,81.054,0,76.186,0z"/>
<g>
	<g>
		<g>
			<path fill="#FFFFFF" d="M47.443,61.528H14.456c-2.736,0-4.956,2.22-4.956,4.956v9.012h42.898v-9.012
				C52.398,63.748,50.178,61.528,47.443,61.528z"/>
		</g>
	</g>
	<g>
		<g>
			<path fill="#FFFFFF" d="M74.611,62.227L44.499,32.116l5.816-5.806c0.959,0.846,2.434,0.804,3.341-0.103
				c0.949-0.959,0.949-2.496,0-3.455L41.117,10.223c-0.949-0.959-2.496-0.959-3.444,0c-0.959,0.949-0.959,2.496,0,3.444
				l-0.103-0.103L21.648,29.476l0.103,0.113c-0.949-0.959-2.496-0.959-3.444,0c-0.959,0.949-0.959,2.496,0,3.444l12.529,12.539
				c0.959,0.949,2.506,0.949,3.455,0c0.949-0.959,0.949-2.495,0-3.454l0.103,0.103l5.816-5.806L70.31,66.517
				c1.186,1.186,3.114,1.186,4.3,0C75.796,65.331,75.796,63.413,74.611,62.227z"/>
		</g>
	</g>
</g>
</svg>
