<?xml version="1.0" encoding="utf-8"?>
<!-- Generator: Adobe Illustrator 17.0.0, SVG Export Plug-In . SVG Version: 6.00 Build 0)  -->
<!DOCTYPE svg PUBLIC "-//W3C//DTD SVG 1.1//EN" "http://www.w3.org/Graphics/SVG/1.1/DTD/svg11.dtd">
<svg version="1.1" id="Layer_1" xmlns="http://www.w3.org/2000/svg" xmlns:xlink="http://www.w3.org/1999/xlink" x="0px" y="0px"
	 width="85px" height="85px" viewBox="0 0 85 85" enable-background="new 0 0 85 85" xml:space="preserve">
<linearGradient id="SVGID_1_" gradientUnits="userSpaceOnUse" x1="42.5" y1="85" x2="42.5" y2="-1.509761e-09">
	<stop  offset="0" style="stop-color:#006DF0"/>
	<stop  offset="1" style="stop-color:#00E7F0"/>
</linearGradient>
<path fill="url(#SVGID_1_)" d="M76.186,0H8.814C3.946,0,0,3.946,0,8.814v67.373C0,81.054,3.946,85,8.814,85h67.373
	C81.054,85,85,81.054,85,76.186V8.814C85,3.946,81.054,0,76.186,0z"/>
<g>
	<path fill="#FFFFFF" d="M42.212,15.346c-13.48,0-24.405,10.926-24.405,24.405c0,9.221,5.111,17.236,12.652,21.389l-0.287,10.086
		l11.515-7.097c0.174,0.004,0.348,0.027,0.525,0.027c13.48,0,24.406-10.926,24.406-24.406S55.691,15.346,42.212,15.346z
		 M41.116,54.43c-2.179,0-3.663-1.605-3.663-3.745c0-2.185,1.521-3.749,3.663-3.749c2.226,0,3.667,1.564,3.706,3.749
		C44.824,52.82,43.344,54.43,41.116,54.43z M46.097,39.113c-1.521,1.689-2.14,3.292-2.097,5.151V45h-5.477l-0.043-1.068
		c-0.123-2.097,0.576-4.243,2.433-6.463c1.314-1.568,2.388-2.884,2.388-4.284c0-1.439-0.951-2.386-3.011-2.466
		c-1.353,0-3.005,0.49-4.069,1.234l-1.402-4.493c1.482-0.863,3.948-1.681,6.873-1.681c5.438,0,7.903,3.003,7.903,6.422
		C49.598,35.326,47.665,37.384,46.097,39.113z"/>
</g>
</svg>
