<?xml version="1.0" encoding="utf-8"?>
<!-- Generator: Adobe Illustrator 17.0.0, SVG Export Plug-In . SVG Version: 6.00 Build 0)  -->
<!DOCTYPE svg PUBLIC "-//W3C//DTD SVG 1.1//EN" "http://www.w3.org/Graphics/SVG/1.1/DTD/svg11.dtd">
<svg version="1.1" id="Layer_1" xmlns="http://www.w3.org/2000/svg" xmlns:xlink="http://www.w3.org/1999/xlink" x="0px" y="0px"
	 width="85px" height="85px" viewBox="0 0 85 85" enable-background="new 0 0 85 85" xml:space="preserve">
<linearGradient id="SVGID_1_" gradientUnits="userSpaceOnUse" x1="42.5" y1="85" x2="42.5" y2="-1.509761e-09">
	<stop  offset="0" style="stop-color:#006DF0"/>
	<stop  offset="1" style="stop-color:#00E7F0"/>
</linearGradient>
<path fill="url(#SVGID_1_)" d="M76.186,0H8.814C3.946,0,0,3.946,0,8.814v67.373C0,81.054,3.946,85,8.814,85h67.373
	C81.054,85,85,81.054,85,76.186V8.814C85,3.946,81.054,0,76.186,0z"/>
<g>
	<g>
		<path fill="#FFFFFF" d="M52.535,28.526l5.706,3.613c0.487,0.31,1.091-0.074,1.091-0.693V29.19h3.495
			c0.723,0,1.312,0.59,1.312,1.312v9.157c0,0.752,0.605,1.357,1.357,1.357s1.357-0.605,1.357-1.357v-9.157
			c0-2.212-1.799-4.025-4.025-4.025h-3.495v-2.256c0-0.619-0.605-1.003-1.091-0.693l-5.706,3.613
			C52.049,27.45,52.049,28.217,52.535,28.526z"/>
		<path fill="#FFFFFF" d="M17.604,40.779c0.31,0.487,1.076,0.487,1.386,0l3.613-5.706c0.31-0.487-0.074-1.091-0.693-1.091h-2.256
			v-3.495c0-0.723,0.59-1.312,1.312-1.312h7.048c0.752,0,1.357-0.605,1.357-1.357s-0.605-1.357-1.357-1.357h-7.048
			c-2.212,0-4.025,1.799-4.025,4.025v3.495h-2.256c-0.619,0-1.003,0.605-0.693,1.091L17.604,40.779z"/>
		<path fill="#FFFFFF" d="M49.454,64.814l-5.706-3.613c-0.487-0.31-1.091,0.074-1.091,0.693v2.256h-7.255
			c-0.752,0-1.357,0.605-1.357,1.357s0.605,1.357,1.357,1.357h7.255v2.256c0,0.619,0.605,1.003,1.091,0.693l5.706-3.613
			C49.94,65.905,49.94,65.123,49.454,64.814z"/>
		<path fill="#FFFFFF" d="M40.621,40.868h0.649h12.445c-0.074-5.176,0.147-7.948-3.214-9.157c-3.052-1.165-4.866-2.359-4.866-2.359
			l-2.344,7.432l-0.324,1.003l-1.047-2.979c2.418-3.377-0.177-3.539-0.634-3.539l0,0c0,0,0,0-0.015,0l0,0l0,0c0,0,0,0-0.015,0l0,0
			c-0.457,0-3.052,0.162-0.634,3.539l-1.047,2.979l-0.324-1.003l-2.344-7.432c0,0-1.828,1.194-4.866,2.359
			c-3.362,1.224-3.155,3.981-3.214,9.157H40.621z"/>
		<path fill="#FFFFFF" d="M36.021,24.648c0.265,1.74,1.607,3.966,3.834,4.748c0.899,0.324,1.902,0.324,2.802,0
			c2.182-0.781,3.568-2.993,3.834-4.733c0.295-0.029,0.678-0.428,1.091-1.902c0.575-2.005-0.029-2.3-0.546-2.256
			c0.103-0.28,0.177-0.546,0.221-0.826c0.87-5.19-1.696-5.382-1.696-5.382s-0.428-0.811-1.548-1.43
			c-0.752-0.442-1.784-0.781-3.17-0.664c-0.442,0.015-0.87,0.103-1.268,0.236l0,0c-0.501,0.177-0.973,0.413-1.386,0.708
			c-0.516,0.324-1.003,0.723-1.43,1.18c-0.678,0.693-1.283,1.592-1.548,2.698c-0.221,0.84-0.177,1.71,0.015,2.639l0,0
			c0.044,0.28,0.118,0.546,0.221,0.826c-0.516-0.044-1.121,0.251-0.546,2.256C35.343,24.206,35.726,24.619,36.021,24.648z"/>
		<path fill="#FFFFFF" d="M74.963,64.843c-3.052-1.165-4.866-2.359-4.866-2.359l-2.359,7.432l-0.324,1.003l-1.047-2.979
			c2.418-3.377-0.177-3.539-0.634-3.539l0,0c0,0,0,0-0.015,0l0,0l0,0c0,0,0,0-0.015,0l0,0c-0.457,0-3.052,0.162-0.634,3.539
			l-1.047,2.979l-0.324-1.003l-2.344-7.432c0,0-1.828,1.194-4.866,2.359c-3.362,1.224-3.155,3.981-3.214,9.157h11.811h0.649h12.445
			C78.103,68.824,78.31,66.067,74.963,64.843z"/>
		<path fill="#FFFFFF" d="M65.319,45.306c-0.442,0.015-0.87,0.103-1.268,0.236l0,0c-0.501,0.177-0.973,0.413-1.386,0.708
			c-0.516,0.324-1.003,0.723-1.43,1.18c-0.678,0.693-1.283,1.592-1.548,2.698c-0.221,0.84-0.177,1.71,0.015,2.639l0,0
			c0.044,0.28,0.118,0.546,0.221,0.826c-0.516-0.044-1.121,0.251-0.546,2.256c0.413,1.46,0.796,1.873,1.091,1.902
			c0.265,1.74,1.607,3.966,3.834,4.748c0.899,0.324,1.902,0.324,2.802,0c2.182-0.781,3.568-2.993,3.834-4.733
			c0.295-0.029,0.678-0.428,1.091-1.902c0.575-2.005-0.029-2.3-0.546-2.256c0.103-0.28,0.177-0.546,0.221-0.826
			c0.87-5.19-1.696-5.382-1.696-5.382s-0.428-0.811-1.548-1.43C67.738,45.542,66.691,45.188,65.319,45.306z"/>
		<path fill="#FFFFFF" d="M27.69,64.843c-3.052-1.165-4.866-2.359-4.866-2.359l-2.359,7.432l-0.324,1.003l-1.047-2.979
			c2.418-3.377-0.177-3.539-0.634-3.539l0,0c0,0,0,0-0.015,0l0,0l0,0c0,0,0,0-0.015,0l0,0c-0.457,0-3.052,0.162-0.634,3.539
			l-1.047,2.979l-0.324-1.003l-2.344-7.432c0,0-1.828,1.194-4.866,2.359C5.853,66.067,6.059,68.824,6,74h11.826h0.649h12.445
			C30.845,68.824,31.052,66.067,27.69,64.843z"/>
		<path fill="#FFFFFF" d="M13.21,57.78c0.265,1.74,1.607,3.966,3.834,4.748c0.899,0.324,1.902,0.324,2.802,0
			c2.182-0.781,3.568-2.993,3.834-4.733c0.295-0.029,0.678-0.428,1.091-1.902c0.575-2.005-0.029-2.3-0.546-2.256
			c0.103-0.28,0.177-0.546,0.221-0.826c0.87-5.19-1.696-5.382-1.696-5.382s-0.428-0.811-1.548-1.43
			c-0.752-0.442-1.784-0.781-3.17-0.664c-0.442,0.015-0.87,0.103-1.268,0.236l0,0c-0.501,0.177-0.973,0.413-1.386,0.708
			c-0.516,0.324-1.003,0.723-1.43,1.18c-0.678,0.693-1.283,1.592-1.548,2.698c-0.221,0.84-0.177,1.71,0.015,2.639l0,0
			c0.044,0.28,0.118,0.546,0.221,0.826c-0.516-0.044-1.121,0.251-0.546,2.256C12.532,57.338,12.915,57.751,13.21,57.78z"/>
	</g>
</g>
</svg>
