<?xml version="1.0" encoding="utf-8"?>
<!-- Generator: Adobe Illustrator 17.0.0, SVG Export Plug-In . SVG Version: 6.00 Build 0)  -->
<!DOCTYPE svg PUBLIC "-//W3C//DTD SVG 1.1//EN" "http://www.w3.org/Graphics/SVG/1.1/DTD/svg11.dtd">
<svg version="1.1" id="Layer_1" xmlns="http://www.w3.org/2000/svg" xmlns:xlink="http://www.w3.org/1999/xlink" x="0px" y="0px"
	 width="85px" height="85px" viewBox="0 0 85 85" enable-background="new 0 0 85 85" xml:space="preserve">
<linearGradient id="SVGID_1_" gradientUnits="userSpaceOnUse" x1="42.5" y1="85" x2="42.5" y2="-1.509761e-09">
	<stop  offset="0" style="stop-color:#006DF0"/>
	<stop  offset="1" style="stop-color:#00E7F0"/>
</linearGradient>
<path fill="url(#SVGID_1_)" d="M76.186,0H8.814C3.946,0,0,3.946,0,8.814v67.373C0,81.054,3.946,85,8.814,85h67.373
	C81.054,85,85,81.054,85,76.186V8.814C85,3.946,81.054,0,76.186,0z"/>
<g>
	<g>
		<g>
			<path fill="#FFFFFF" d="M26.336,27.118c-2.086-2.086-10.95-2.607-13.818-2.868c-0.261,0-0.521,0-0.782,0.261
				c-0.261,0.261-0.521,0.782-0.521,1.043v23.464c0,0.782,0.521,1.304,1.304,1.304h7.821c0.521,0,1.043-0.261,1.304-0.782
				c0-0.782,4.693-14.6,5.214-21.378C26.857,27.9,26.857,27.379,26.336,27.118z"/>
		</g>
	</g>
	<g>
		<g>
			<path fill="#FFFFFF" d="M54.232,33.375c-2.607-0.782-4.953-1.825-7.039-2.607c-4.693-2.086-6.779-1.043-10.95,3.129
				c-1.825,1.825-3.129,4.432-2.868,5.475c0,0.261,0,0.261,0.521,0.521c1.304,0.521,3.129,0.782,4.953-2.086
				c0.261-0.261,0.521-0.521,1.043-0.521c0.782,0,1.043-0.261,1.825-0.521c0.521-0.261,1.043-0.521,1.825-0.782
				c0.261,0,0.261,0,0.521,0c0.261,0,0.782,0.261,1.043,0.261c1.304,1.304,3.65,3.129,5.997,5.214c3.65,2.868,7.3,5.996,9.125,8.343
				h0.261C58.664,44.586,55.536,35.721,54.232,33.375z"/>
		</g>
	</g>
	<g>
		<g>
			<path fill="#FFFFFF" d="M72.482,26.857c-10.168,0-15.903,2.607-16.164,2.607c-0.261,0.261-0.521,0.521-0.782,0.782
				c0,0.261,0,0.782,0.261,1.043c1.564,2.607,6.779,16.946,7.561,20.596c0.261,0.521,0.782,1.043,1.304,1.043h7.821
				c0.782,0,1.304-0.521,1.304-1.304V28.161C73.785,27.379,73.264,26.857,72.482,26.857z"/>
		</g>
	</g>
	<g>
		<g>
			<path fill="#FFFFFF" d="M58.403,52.407c-1.043-2.346-5.475-5.736-9.386-8.864c-2.086-1.825-4.171-3.389-5.736-4.693
				c-0.261,0.261-0.782,0.261-0.782,0.521c-0.782,0.261-1.043,0.521-2.086,0.521c-2.086,2.607-4.693,3.65-7.561,2.607
				c-1.304-0.261-2.086-1.304-2.346-2.346c-0.521-2.607,1.825-6.257,3.65-8.082h-5.214c-1.043,5.214-2.868,11.993-4.171,15.643
				c1.043,1.043,2.086,2.346,2.868,2.868c4.953,4.171,10.689,8.343,11.732,9.125c0.782,0.521,2.346,1.043,3.129,1.043
				c0.261,0,0.521,0,0.782,0l-4.171-4.171c-0.521-0.521-0.521-1.304,0-1.825c0.521-0.521,1.304-0.521,1.825,0l5.214,5.214
				c0.521,0.521,1.043,0.261,1.564,0.261c0.782-0.261,1.043-0.782,1.304-1.564l-5.996-5.996c-0.521-0.521-0.521-1.304,0-1.825
				c0.521-0.521,1.304-0.521,1.825,0l6.518,6.518c0.261,0.261,1.304,0.261,2.086,0c0.261-0.261,0.782-0.521,1.043-1.043l-7.3-7.3
				c-0.521-0.521-0.521-1.304,0-1.825s1.304-0.521,1.825,0l7.561,7.561c0.521,0.261,1.043,0,1.564-0.261
				C58.403,54.232,58.925,53.45,58.403,52.407z"/>
		</g>
	</g>
</g>
</svg>
